<?xml version="1.0" encoding="UTF-8"?>
<svg version="1.1" xmlns="http://www.w3.org/2000/svg" width="1024" height="1024">
<path d="M0 0 C1.08242909 0.85531227 2.16561134 1.7096735 3.25 2.5625 C7.96379773 6.7406389 12.37186648 11.21552965 15 17 C15.66 17 16.32 17 17 17 C18.7265625 19.1171875 18.7265625 19.1171875 20.625 21.875 C21.57246094 23.23238281 21.57246094 23.23238281 22.5390625 24.6171875 C24 27 24 27 24 29 C24.66 29 25.32 29 26 29 C30.55883201 34.81437919 33.52779818 41.98415066 36.6875 48.625 C37.067854 49.42397705 37.44820801 50.2229541 37.84008789 51.04614258 C41.558412 58.98451492 44.39591218 66.89896235 46.625 75.375 C46.8415625 76.16132812 47.058125 76.94765625 47.28125 77.7578125 C49.70439676 86.91192249 50.1765004 95.93995201 50.125 105.375 C50.12089111 106.29547119 50.11678223 107.21594238 50.11254883 108.16430664 C49.95081747 127.89031523 45.72892516 144.94547522 38 163 C38.82375626 162.80967697 38.82375626 162.80967697 39.66415405 162.61550903 C44.9760183 161.40866218 50.28914749 160.37322127 55.6640625 159.4921875 C56.45920258 159.36184113 57.25434265 159.23149475 58.07357788 159.09719849 C59.74556088 158.82502663 61.41781709 158.55452824 63.09033203 158.28564453 C64.77021652 158.01348447 66.4492793 157.73619941 68.12744141 157.45361328 C97.97738709 152.42878448 97.97738709 152.42878448 106.42578125 157.76171875 C116.68903946 165.83480275 116.49151483 180.35077097 118 192.5 C118.25524338 194.48309177 118.51049277 196.46618303 118.76699829 198.44911194 C119.02018757 200.40844386 119.27133756 202.36803895 119.52246094 204.32763672 C120.18358106 209.41177212 120.89462405 214.48790878 121.625 219.5625 C121.73585938 220.33851563 121.84671875 221.11453125 121.9609375 221.9140625 C122.60055362 226.35330295 123.27406946 230.78657667 123.9609375 235.21875 C125.02649564 242.11771073 126.01974975 249.02596991 127 255.9375 C127.165 257.09701172 127.33 258.25652344 127.5 259.45117188 C127.665 260.61068359 127.83 261.77019531 128 262.96484375 C128.16387207 264.11597656 128.32774414 265.26710938 128.49658203 266.453125 C128.84324364 268.89555947 129.18785085 271.33828612 129.53076172 273.78125 C129.70365723 275.00714844 129.87655273 276.23304688 130.0546875 277.49609375 C130.28647705 279.14822876 130.28647705 279.14822876 130.52294922 280.83374023 C130.99180915 283.94563607 131.54426407 287.0322621 132.125 290.125 C133.69683239 299.81367181 134.27810486 307.20315856 129.09375 315.84375 C122.70493705 322.42327378 114.02637854 323.18648079 105.375 324.5 C104.02731327 324.71373268 102.67974053 324.92818528 101.33227539 325.14331055 C91.54185086 326.68779682 81.72378735 328.0098847 71.89233398 329.26513672 C63.26419404 330.38387431 54.66263225 331.63979238 46.0625 332.95703125 C44.90766617 333.13359756 43.75283234 333.31016388 42.56300354 333.49208069 C36.76321963 334.38049275 30.96478838 335.2768772 25.16772461 336.18286133 C14.96943487 337.76339299 4.76637591 339.26559553 -5.49609375 340.3671875 C-6.31408951 340.46452179 -7.13208527 340.56185608 -7.97486877 340.66213989 C-14.90968246 341.34165801 -22.70518579 341.15932014 -28.4375 336.75 C-32.94825504 331.90918972 -34.480793 326.93127125 -35.375 320.5 C-35.49093506 319.72172852 -35.60687012 318.94345703 -35.72631836 318.14160156 C-37.56933452 305.48583636 -39.17098288 292.79206916 -40.81640625 280.109375 C-40.91648987 279.34020752 -41.01657349 278.57104004 -41.11968994 277.77856445 C-41.60464896 274.05146365 -42.08651191 270.32402302 -42.56201172 266.59570312 C-42.73784949 265.23566334 -42.91378814 263.8756366 -43.08984375 262.515625 C-43.24187256 261.32743164 -43.39390137 260.13923828 -43.55053711 258.91503906 C-43.92486334 255.94546387 -43.92486334 255.94546387 -45 253 C-45.1464714 251.44733347 -45.24694074 249.89004338 -45.31640625 248.33203125 C-45.35830078 247.43935547 -45.40019531 246.54667969 -45.44335938 245.62695312 C-45.48267578 244.69818359 -45.52199219 243.76941406 -45.5625 242.8125 C-45.60568359 241.87212891 -45.64886719 240.93175781 -45.69335938 239.96289062 C-45.79938665 237.64207146 -45.90145029 235.32114675 -46 233 C-46.66829834 233.22139648 -47.33659668 233.44279297 -48.02514648 233.67089844 C-74.27656698 242.32753911 -99.05274011 248.34720125 -127 247 C-128.30493408 246.9383667 -128.30493408 246.9383667 -129.63623047 246.87548828 C-153.55759525 245.63769903 -180.30847918 241.84576041 -202 231 C-201.9071875 231.72058594 -201.814375 232.44117188 -201.71875 233.18359375 C-200.91582811 245.12705687 -204.99900302 255.264565 -208.80615234 266.41259766 C-210.92989601 272.79425194 -212.8332841 279.24127804 -214.75 285.6875 C-215.29611938 287.51087891 -215.29611938 287.51087891 -215.85327148 289.37109375 C-217.63782758 295.34652307 -219.38212254 301.33085366 -221.078125 307.33203125 C-222.57931772 312.61016883 -224.22380808 317.80951958 -226 323 C-227.09926192 326.32824391 -228.17804177 329.66287 -229.25 333 C-229.54938477 333.93191162 -229.84876953 334.86382324 -230.15722656 335.82397461 C-232.88066536 344.4124624 -235.29969632 353.07692983 -237.60253906 361.78710938 C-237.87291992 362.78677734 -238.14330078 363.78644531 -238.421875 364.81640625 C-238.65487305 365.69756104 -238.88787109 366.57871582 -239.12792969 367.48657227 C-241.21656926 373.50632152 -244.40679248 377.13115924 -250 380 C-256.49501787 382.53195612 -262.13371021 382.02026974 -268.7734375 380.33203125 C-269.51176819 380.15102875 -270.25009888 379.97002625 -271.01080322 379.78353882 C-279.30098912 377.72592952 -287.52865257 375.43964814 -295.75 373.125 C-297.35068839 372.67686785 -298.95143787 372.22895387 -300.55224609 371.78125 C-304.38165607 370.70910292 -308.20979948 369.63253002 -312.03723145 368.55334473 C-313.73912664 368.07354555 -315.44131437 367.59478425 -317.14355469 367.11621094 C-325.87956926 364.65730335 -334.59268976 362.12371623 -343.296875 359.5546875 C-344.04033173 359.33540588 -344.78378845 359.11612427 -345.54977417 358.89019775 C-349.25497363 357.79707523 -352.95946345 356.70166167 -356.66259766 355.6015625 C-364.64600652 353.23683263 -372.64698113 350.98994534 -380.70507812 348.89282227 C-389.76870638 346.43685839 -396.4271864 344.48682088 -401.75 336.3125 C-405.03956216 330.22681001 -404.78093709 324.98005592 -403.0234375 318.2734375 C-401.96512331 314.83687493 -400.81726172 311.43061665 -399.66699219 308.02392578 C-398.64939299 304.93611563 -397.76080626 301.81528876 -396.875 298.6875 C-396.55402344 297.55441406 -396.23304688 296.42132812 -395.90234375 295.25390625 C-394.83640078 291.41005129 -393.80815168 287.55695865 -392.80859375 283.6953125 C-392 281 -392 281 -390.66015625 277.54296875 C-388.37576124 271.5488063 -386.73582008 265.35749206 -385 259.1875 C-384.48566406 257.37668945 -384.48566406 257.37668945 -383.9609375 255.52929688 C-382.15731981 249.1650047 -380.3903094 242.79403542 -378.7109375 236.39575195 C-377.95699462 233.85507837 -377.00006227 231.45292147 -376 229 C-375.32889629 226.79921455 -374.68500621 224.59002208 -374.0625 222.375 C-373.71316406 221.14136719 -373.36382812 219.90773438 -373.00390625 218.63671875 C-372.39054635 216.41478075 -371.79073644 214.18897356 -371.21484375 211.95703125 C-366.14554551 192.31696322 -366.14554551 192.31696322 -359.109375 187.78125 C-350.36677069 183.24804777 -342.89861461 183.44710652 -333.5390625 186.0703125 C-332.7214444 186.29260529 -331.90382629 186.51489807 -331.06143188 186.743927 C-321.50020531 189.36643038 -311.98684759 192.16134164 -302.47662354 194.96203613 C-297.19991634 196.51523656 -291.92018778 198.0581018 -286.640625 199.6015625 C-285.61852936 199.90050415 -284.59643372 200.1994458 -283.54336548 200.50744629 C-275.74597748 202.78635679 -267.94389204 205.04587597 -260.125 207.25 C-259.20251465 207.51280762 -258.2800293 207.77561523 -257.32958984 208.04638672 C-251.60027333 209.64868086 -245.84836141 210.9117152 -240 212 C-240.66644531 211.5875 -241.33289063 211.175 -242.01953125 210.75 C-260.48571823 199.17957795 -260.48571823 199.17957795 -266 193 C-266 192.34 -266 191.68 -266 191 C-266.556875 190.773125 -267.11375 190.54625 -267.6875 190.3125 C-270.66159588 188.62449964 -272.72008865 186.53323483 -275 184 C-275 183.34 -275 182.68 -275 182 C-275.66 182 -276.32 182 -277 182 C-281 177.52941176 -281 177.52941176 -281 175 C-281.66 175 -282.32 175 -283 175 C-284.48364579 173.03001389 -285.81492554 171.08266117 -287.125 169 C-287.52098389 168.37279053 -287.91696777 167.74558105 -288.32495117 167.09936523 C-302.10466227 144.86136502 -308.98098958 121.24561125 -303 95 C-300.44811597 86.01320708 -296.86944712 76.35448796 -291 69 C-290.34 69 -289.68 69 -289 69 C-288.505 67.02 -288.505 67.02 -288 65 C-287.34 65 -286.68 65 -286 65 C-285.773125 64.443125 -285.54625 63.88625 -285.3125 63.3125 C-283.62449964 60.33840412 -281.53323483 58.27991135 -279 56 C-278.34 56 -277.68 56 -277 56 C-277 55.34 -277 54.68 -277 54 C-270.78930454 48.33977081 -263.62641711 44.01516761 -256.25 40.0625 C-255.55398682 39.68536865 -254.85797363 39.3082373 -254.14086914 38.91967773 C-250.6334057 37.09682627 -247.45235545 35.79038516 -243.57421875 34.98046875 C-242.39472656 34.65691406 -241.21523438 34.33335937 -240 34 C-238.96715617 31.96109598 -238.50827591 30.03483051 -237.94921875 27.81640625 C-234.54192233 17.70669136 -225.94533973 7.01724206 -219 -1 C-218.34 -1 -217.68 -1 -217 -1 C-216.67 -1.99 -216.34 -2.98 -216 -4 C-215.34 -4 -214.68 -4 -214 -4 C-213.76539063 -4.56976563 -213.53078125 -5.13953125 -213.2890625 -5.7265625 C-204.0023947 -22.10486754 -178.33299277 -33.77771153 -161 -39 C-104.28463598 -54.08182953 -44.21373222 -38.05539094 0 0 Z M-179 14 C-179 14.66 -179 15.32 -179 16 C-179.556875 16.226875 -180.11375 16.45375 -180.6875 16.6875 C-183.66159588 18.37550036 -185.72008865 20.46676517 -188 23 C-188 23.66 -188 24.32 -188 25 C-188.66 25 -189.32 25 -190 25 C-191.52011528 26.88494295 -192.89437832 28.75068971 -194.25 30.75 C-194.65114014 31.33837646 -195.05228027 31.92675293 -195.46557617 32.53295898 C-200.499103 40.06458412 -204.3867658 47.78933175 -207.125 56.4375 C-209.66346872 64.2780929 -209.66346872 64.2780929 -213 67 C-216.25362961 68.29753966 -219.61571318 69.11260346 -223 70 C-239.53917772 74.80748333 -253.15550508 82.05199281 -261.8125 97.578125 C-266.73240959 107.61215113 -266.33547991 119.29419846 -262.875 129.75 C-260.64235794 135.83728904 -258.08959947 141.90299187 -254 147 C-253.34 147 -252.68 147 -252 147 C-251.938125 147.556875 -251.87625 148.11375 -251.8125 148.6875 C-250.67353124 151.9291803 -248.44728229 153.70905516 -246 156 C-244.66432898 157.35186097 -243.33114972 158.70618677 -242 160.0625 C-237.24002168 165.53555568 -237.24002168 165.53555568 -231 168 C-231 168.66 -231 169.32 -231 170 C-213.32579385 185.13279765 -189.29660106 194.40046023 -167 200 C-166.22430664 200.19674316 -165.44861328 200.39348633 -164.64941406 200.59619141 C-132.19348136 208.6727516 -99.33902827 207.85213225 -67.20654297 198.63085938 C-65.78821829 198.22535473 -64.36550895 197.83472883 -62.93798828 197.46289062 C-55.51298357 195.61598119 -55.51298357 195.61598119 -50.4296875 190.34375 C-49.33073641 187.42658252 -49.33073641 187.42658252 -48.7109375 184.5234375 C-47.93841286 181.78139949 -47.05677269 180.87495853 -45 179 C-45 178.34 -45 177.68 -45 177 C-34.71788058 174.33826869 -24.43647307 171.9793311 -14 170 C-14 169.34 -14 168.68 -14 168 C-13.01 167.67 -12.02 167.34 -11 167 C-2.8243954 156.95568578 3.38523622 145.4347874 7 133 C7.37125 131.824375 7.7425 130.64875 8.125 129.4375 C11.38263077 116.63966482 11.71448039 100.70181514 8 88 C7.63261719 86.55560547 7.63261719 86.55560547 7.2578125 85.08203125 C3.55087487 71.61567816 -3.20062111 57.90627242 -12 47 C-12.66 47 -13.32 47 -14 47 C-15 45 -16 43 -17 41 C-17.66 41 -18.32 41 -19 41 C-19.33 40.01 -19.66 39.02 -20 38 C-20.66 38 -21.32 38 -22 38 C-22.33 37.01 -22.66 36.02 -23 35 C-24.6396721 33.63360658 -26.31110128 32.3050581 -28 31 C-28.70125 30.2575 -29.4025 29.515 -30.125 28.75 C-55.90929934 4.08675715 -92.28184117 -4.58108723 -126.8984375 -4.21484375 C-146.23301701 -3.73192918 -163.76559955 1.94476715 -179 14 Z M66.39648438 196.88623047 C65.43184769 197.02771515 65.43184769 197.02771515 64.44772339 197.17205811 C62.32920916 197.48366651 60.21149321 197.80038511 58.09375 198.1171875 C56.6075074 198.33690218 55.12121914 198.55630827 53.6348877 198.77542114 C49.72018133 199.35341722 45.80613933 199.93579887 41.89221191 200.51904297 C37.95199305 201.10534078 34.011113 201.6871583 30.0703125 202.26953125 C19.41571349 203.84547363 19.41571349 203.84547363 8.76342773 205.43695068 C6.22734927 205.81637533 3.69037121 206.18982928 1.15258789 206.55767822 C-0.03149658 206.73216492 -1.21558105 206.90665161 -2.43554688 207.08642578 C-4.01184875 207.3152092 -4.01184875 207.3152092 -5.61999512 207.5486145 C-7.94608797 207.75843352 -7.94608797 207.75843352 -9 209 C-9.50568342 215.78422818 -8.69608905 222.42927811 -7.6875 229.125 C-7.4076047 231.07664413 -7.12900256 233.02847407 -6.8515625 234.98046875 C-6.70879883 235.97739746 -6.56603516 236.97432617 -6.41894531 238.00146484 C-5.74753037 242.80701168 -5.15444306 247.62162331 -4.5625 252.4375 C-3.43801834 261.51069459 -2.30235549 270.5823754 -1.14279175 279.65115356 C-0.96541012 281.04140103 -0.78890516 282.43176065 -0.61331177 283.82223511 C-0.36689665 285.77240617 -0.11710759 287.72215001 0.1328125 289.671875 C0.27605957 290.7969043 0.41930664 291.92193359 0.56689453 293.08105469 C0.9193395 295.4563828 1.3968951 297.68214998 2 300 C12.14927837 299.40248778 22.09496492 298.06631125 32.1328125 296.53125 C33.74367328 296.28811884 35.35458536 296.04532732 36.96554565 295.80285645 C40.3124424 295.29809242 43.65884148 294.79018823 47.00488281 294.27978516 C51.29352773 293.62572759 55.58314062 292.97829287 59.87310982 292.33298492 C63.18648982 291.83409112 66.49945229 291.3324709 69.81228256 290.8299408 C71.39503625 290.59004617 72.97789354 290.350834 74.56085587 290.11231995 C76.7625035 289.78002248 78.96358934 289.4442303 81.16455078 289.10742188 C82.41551544 288.91724487 83.6664801 288.72706787 84.95535278 288.53112793 C88.03053437 288.07231679 88.03053437 288.07231679 91 287 C90.88157492 285.2703706 90.75471735 283.54131918 90.625 281.8125 C90.55539062 280.84957031 90.48578125 279.88664062 90.4140625 278.89453125 C89.9385498 274.42202027 89.24682033 270.00370402 88.54833984 265.5612793 C87.43446682 258.32705586 86.4844655 251.06914817 85.5 243.81640625 C84.5560529 236.90641849 83.54757321 230.01144274 82.47314453 223.12060547 C81.57748875 217.21334428 80.82133788 211.28675149 80.05664062 205.36132812 C79.87198242 203.97010742 79.87198242 203.97010742 79.68359375 202.55078125 C79.57587646 201.72231689 79.46815918 200.89385254 79.35717773 200.0402832 C79.09012171 197.94167763 79.09012171 197.94167763 78 196 C74.03822519 195.89486781 70.31439459 196.3054421 66.39648438 196.88623047 Z M-335 227 C-335.1858667 227.67353516 -335.3717334 228.34707031 -335.56323242 229.04101562 C-338.74256318 240.53951354 -341.93682086 252.01655102 -345.55078125 263.38671875 C-350.83715455 280.10287779 -356.09409471 296.90142161 -360 314 C-351.61790081 316.88193523 -343.12796957 319.37980493 -334.625 321.875 C-333.86478546 322.09854156 -333.10457092 322.32208313 -332.32131958 322.55239868 C-323.18847434 325.23517873 -314.0520537 327.86745957 -304.8293457 330.22680664 C-294.16770866 332.95777625 -283.59059596 336.00765403 -273 339 C-269.58081985 331.10043597 -267.16916128 323.03689437 -264.875 314.75 C-264.18604065 312.28613793 -263.4959754 309.82258476 -262.8046875 307.359375 C-262.50546387 306.28139648 -262.20624023 305.20341797 -261.89794922 304.09277344 C-260.68094378 299.90108639 -259.27059389 295.78693121 -257.8515625 291.66015625 C-255.2114173 283.91629086 -252.89901182 276.17481272 -250.89453125 268.2421875 C-250.10374652 265.37602449 -249.12326588 262.74627046 -248 260 C-247.59582781 258.570428 -247.21799316 257.13297118 -246.875 255.6875 C-246.58625 254.470625 -246.2975 253.25375 -246 252 C-251.51447059 249.46693018 -257.0225103 247.76476673 -262.875 246.1875 C-265.06954436 245.58658197 -267.26349667 244.98349989 -269.45703125 244.37890625 C-270.07970383 244.20740051 -270.7023764 244.03589478 -271.34391785 243.85919189 C-277.66391323 242.10972207 -283.96242992 240.28722597 -290.26171875 238.46484375 C-292.46693635 237.82845122 -294.67217747 237.19214015 -296.87744141 236.5559082 C-300.21193376 235.59376981 -303.54585216 234.62984529 -306.87811279 233.66000366 C-310.04348987 232.73921572 -313.21096384 231.82597914 -316.37890625 230.9140625 C-317.80586067 230.49573402 -317.80586067 230.49573402 -319.26164246 230.06895447 C-324.52296972 228.56246093 -329.54949975 227.51932319 -335 227 Z " fill="#A248FE" transform="translate(642,438)"/>
<path d="M0 0 C2.4751377 0.28294175 4.95028642 0.5657871 7.42544556 0.84854126 C12.59474818 1.43987814 17.76376537 2.03364242 22.93261719 2.62890625 C29.51697228 3.38680666 36.10221184 4.13670034 42.68771935 4.88451195 C47.79464137 5.46567421 52.90094678 6.05212066 58.00709915 6.6400032 C60.43307153 6.91849612 62.85925371 7.19516836 65.28565598 7.46989059 C87.01493634 9.9339827 87.01493634 9.9339827 96.71337891 11.60791016 C98.48740585 11.9139769 98.48740585 11.9139769 100.29727173 12.22622681 C105.19808207 13.67188094 109.41635801 16.29932267 112.3515625 20.5390625 C118.51683199 31.8703101 113.32645915 50.10023186 111.73828125 62.2890625 C111.45326944 64.52554116 111.16900756 66.7621155 110.88545227 68.9987793 C110.13979659 74.86350548 109.3835433 80.72681772 108.62512207 86.58990479 C107.86367816 92.49265748 107.11320229 98.3968035 106.36132812 104.30078125 C104.87558845 115.94332285 103.38753679 127.58550985 101.86050034 139.22271729 C101.59829559 141.23146608 101.33870964 143.24055801 101.0813942 145.24993896 C100.6949159 148.26762618 100.30093352 151.28425385 99.90551758 154.30078125 C99.79127536 155.20673538 99.67703314 156.11268951 99.55932903 157.0460968 C98.46146251 165.30830834 96.73092352 171.40423235 90.4765625 177.1640625 C80.42243689 183.52483584 66.15377514 179.84122497 54.9765625 178.3515625 C52.34150275 178.00849748 49.70634018 177.6674629 47.0703125 177.33203125 C46.36087997 177.24166595 45.65144745 177.15130066 44.92051697 177.05819702 C37.89914927 176.18281472 30.86325053 175.46326661 23.82421875 174.74609375 C9.64226074 173.2998313 -4.5252184 171.74573829 -18.68676758 170.11181641 C-21.31632572 169.809856 -23.94601006 169.51062705 -26.57641602 169.21630859 C-30.46736948 168.78091522 -34.3567468 168.33234078 -38.24609375 167.8828125 C-39.4056105 167.75459106 -40.56512726 167.62636963 -41.75978088 167.4942627 C-62.3018909 165.07696111 -62.3018909 165.07696111 -67.6484375 159.2265625 C-76.73719917 147.49256423 -72.27883363 130.49045521 -70.54025269 116.75704956 C-70.10973826 113.43466616 -69.67349048 110.11315354 -69.23347473 106.79202271 C-68.48690695 101.13405796 -67.76303413 95.47310055 -67.03442001 89.81280136 C-66.75302523 87.62988427 -66.47017452 85.44715882 -66.18728638 83.26443481 C-64.98847485 73.98298613 -63.86645338 64.69506749 -62.8078022 55.3966198 C-62.57645869 53.36730473 -62.34313321 51.33822766 -62.1091156 49.30921936 C-61.2209502 41.60762274 -61.2209502 41.60762274 -60.36080933 33.90286255 C-59.97523951 30.39451381 -59.57143487 26.88868625 -59.1640625 23.3828125 C-59.05697464 22.35856674 -58.94988678 21.33432098 -58.83955383 20.27903748 C-57.95816697 12.90463927 -56.22058819 5.75168574 -50.2109375 0.7890625 C-37.85939034 -8.73408415 -14.44512435 -1.66025669 0 0 Z M-20.5234375 37.1640625 C-22.45267327 46.67894317 -23.57335075 56.27124028 -24.6875 65.90625 C-24.88619932 67.60493553 -25.08512713 69.30359434 -25.28427124 71.00222778 C-25.6982751 74.54028964 -26.10982264 78.07862575 -26.51953125 81.6171875 C-27.04415714 86.14687675 -27.57454707 90.67586896 -28.10669899 95.20467949 C-28.51718532 98.70286426 -28.92486624 102.2013715 -29.33167648 105.6999855 C-29.52622856 107.37060118 -29.7215962 109.04112209 -29.91780472 110.71154404 C-30.19102212 113.04159145 -30.46051019 115.37204091 -30.72900391 117.70263672 C-30.85052574 118.72976021 -30.85052574 118.72976021 -30.97450256 119.77763367 C-31.37142078 123.25907149 -31.60899099 126.65994501 -31.5234375 130.1640625 C-21.95758888 131.90038436 -12.35755907 133.05511356 -2.69921875 134.109375 C-1.10123548 134.2857267 0.49673072 134.46223319 2.09468079 134.6388855 C5.42168001 135.00584097 8.74894699 135.37024046 12.07641602 135.73291016 C16.31994408 136.19573294 20.56259974 136.66608343 24.80507183 137.13847542 C28.09655232 137.50394066 31.38852041 137.86485327 34.68064308 138.22448349 C36.24475578 138.39599231 37.80870407 138.56900811 39.37247276 138.74362564 C47.09037444 139.60339791 54.7003035 140.39909387 62.4765625 140.1640625 C65.66818763 118.69618403 68.5475996 97.19392264 71.2890625 75.6640625 C71.52690964 73.80308426 71.52690964 73.80308426 71.76956177 71.9045105 C72.22244444 68.35590726 72.6723909 64.80694643 73.12109375 61.2578125 C73.25835876 60.18116837 73.39562378 59.10452423 73.53704834 57.99525452 C73.66122131 57.00617599 73.78539429 56.01709747 73.91333008 54.99804688 C74.07723991 53.70078674 74.07723991 53.70078674 74.24446106 52.37731934 C74.5287109 50.03768833 74.5287109 50.03768833 74.4765625 47.1640625 C40.3414138 43.01403995 40.3414138 43.01403995 6.18469238 39.04675293 C4.68620375 38.87669167 3.1879066 38.70493347 1.68981934 38.53137207 C-5.73672515 37.67302351 -13.03718052 36.94898771 -20.5234375 37.1640625 Z " fill="#A248FF" transform="translate(622.5234375,227.8359375)"/>
<path d="M0 0 C10.29342796 8.36049918 10.44974845 26.03158446 12.80078125 38.33203125 C13.16297039 40.21365415 13.52545949 42.09521933 13.88822937 43.97673035 C14.84067276 48.92075876 15.78919148 53.86553192 16.73681641 58.81048584 C17.86722767 64.70523543 19.00229917 70.59908925 20.13694572 76.49302483 C21.05766498 81.27695055 21.97665086 86.06119515 22.89163208 90.84622192 C24.52192352 99.36572186 26.16724916 107.88101129 27.88037109 116.38427734 C28.30290469 118.49884876 28.72481172 120.61354423 29.14653587 122.72827721 C29.52702955 124.61997396 29.9177505 126.50960489 30.30891418 128.39912415 C33.87416773 146.28615557 33.87416773 146.28615557 29.25 154.25 C22.86931464 163.1829595 11.70990855 164.20279301 1.61328125 166.26953125 C0.16298775 166.57163261 0.16298775 166.57163261 -1.31660461 166.87983704 C-4.43928834 167.52873699 -7.56330693 168.17090971 -10.6875 168.8125 C-12.86786684 169.26337228 -15.04820516 169.71438251 -17.22851562 170.16552734 C-29.98968497 172.7991525 -42.7595192 175.37808438 -55.56298828 177.79858398 C-62.82062528 179.17327733 -70.05534666 180.62719939 -77.28515625 182.140625 C-79.99046585 182.70135191 -82.69600269 183.2609694 -85.40161133 183.82025146 C-87.14452341 184.18361801 -88.88643857 184.55180757 -90.62719727 184.925354 C-118.28621691 190.85682118 -118.28621691 190.85682118 -129 184 C-129 183.34 -129 182.68 -129 182 C-129.66 182 -130.32 182 -131 182 C-133.8844774 176.64149974 -135.76607059 171.90103193 -136.88769531 165.93969727 C-137.04123978 165.17533356 -137.19478424 164.41096985 -137.35298157 163.6234436 C-137.8557259 161.10647652 -138.34197836 158.58662707 -138.828125 156.06640625 C-139.18339125 154.2701427 -139.53967548 152.47408022 -139.89691162 150.6782074 C-140.83786419 145.93336642 -141.76483954 141.18589886 -142.68890381 136.43774414 C-143.60056797 131.76607271 -144.52539017 127.09701261 -145.44921875 122.42773438 C-146.73196778 115.93935222 -148.00545628 109.44927514 -149.26815033 102.95696068 C-150.73151272 95.43369858 -152.21280265 87.91516271 -153.74888992 80.40636921 C-154.50856221 76.68850369 -155.25834043 72.96867314 -156.00731659 69.24864006 C-156.36069257 67.50729985 -156.71873925 65.76689944 -157.08197784 64.0275898 C-162.56532334 37.74884022 -162.56532334 37.74884022 -157.5 28.875 C-152.25180473 21.38174342 -142.64050814 20.00095067 -134.265625 18.44140625 C-133.1065564 18.21571457 -131.94748779 17.99002289 -130.7532959 17.75749207 C-127.58261421 17.1426082 -124.41015221 16.53825535 -121.23649597 15.93894958 C-117.88566729 15.30395305 -114.53721805 14.65663833 -111.18847656 14.01074219 C-106.21118483 13.05209636 -101.2329222 12.0987328 -96.25359726 11.15070534 C-87.00227729 9.38902837 -77.75812962 7.59211383 -68.51560211 5.78494072 C-63.86177823 4.87616628 -59.20686757 3.97298282 -54.55183029 3.07044697 C-50.78833016 2.340661 -47.02529328 1.60867106 -43.26330566 0.87112427 C-39.71034722 0.17497782 -36.15585525 -0.51275231 -32.6000824 -1.19437218 C-30.67536507 -1.56540396 -28.75225897 -1.94476403 -26.82922363 -2.32441711 C-8.28424468 -5.85489866 -8.28424468 -5.85489866 0 0 Z M-41.37036133 39.46875 C-42.61503677 39.70283569 -42.61503677 39.70283569 -43.88485718 39.94165039 C-46.6180822 40.45679371 -49.35003948 40.97835934 -52.08203125 41.5 C-53.98053108 41.85912065 -55.87910704 42.21783911 -57.77775574 42.57617188 C-62.76796951 43.51909494 -67.75713135 44.46747355 -72.74609375 45.41699219 C-77.83987069 46.3854587 -82.93462362 47.34876181 -88.02929688 48.3125 C-98.02049319 50.20328129 -108.01058581 52.0998275 -118 54 C-119.29107227 57.87321682 -118.46336661 60.83534788 -117.67651367 64.72509766 C-117.52381516 65.51087189 -117.37111664 66.29664612 -117.21379089 67.10623169 C-116.7058132 69.71033115 -116.18697582 72.31214071 -115.66796875 74.9140625 C-115.31197353 76.72655013 -114.95662066 78.53916403 -114.60188293 80.35189819 C-113.66415581 85.13378884 -112.71707392 89.91378223 -111.76824951 94.69348145 C-110.99922129 98.5753969 -110.2366605 102.4585686 -109.4744978 106.34183693 C-107.89371918 114.395413 -106.30858388 122.4481421 -104.71166992 130.49853516 C-104.56767761 131.2282251 -104.4236853 131.95791504 -104.27532959 132.7097168 C-103.25822889 137.82373854 -102.14921018 142.91410165 -101 148 C-93.12898495 147.29142232 -85.48788221 145.79001282 -77.75390625 144.19921875 C-76.37505637 143.91846531 -74.99614369 143.63802012 -73.61717224 143.35786438 C-70.73296455 142.771049 -67.84930817 142.18162114 -64.96606445 141.59008789 C-61.3261572 140.84336784 -57.68529004 140.10146835 -54.0440464 139.3612957 C-39.33401613 136.37024008 -24.63276859 133.35278315 -10 130 C-9.68001749 123.5422747 -10.89482763 117.61384765 -12.1953125 111.3046875 C-12.42351685 110.17065491 -12.65172119 109.03662231 -12.88684082 107.8682251 C-13.62626928 104.20243997 -14.3753512 100.53870748 -15.125 96.875 C-15.63248627 94.37233189 -16.1394846 91.86956479 -16.64599609 89.36669922 C-17.87272438 83.31342607 -19.10747331 77.26182275 -20.34472656 71.21069336 C-21.09395883 67.53962275 -21.83706844 63.86734439 -22.57839966 60.19467163 C-23.25667348 56.8373099 -23.94066283 53.48113123 -24.625 50.125 C-24.97715576 48.38452393 -24.97715576 48.38452393 -25.33642578 46.60888672 C-25.5476709 45.58553223 -25.75891602 44.56217773 -25.9765625 43.5078125 C-26.15268066 42.64816895 -26.32879883 41.78852539 -26.51025391 40.90283203 C-26.82719041 39.00329631 -26.82719041 39.00329631 -28 38 C-32.55631113 37.65527068 -36.91881556 38.61142167 -41.37036133 39.46875 Z " fill="#A248FF" transform="translate(447,194)"/>
<path d="M0 0 C3.97476071 2.3878506 7.02847032 5.13389826 9.57421875 9.05859375 C9.57421875 9.71859375 9.57421875 10.37859375 9.57421875 11.05859375 C10.23421875 11.05859375 10.89421875 11.05859375 11.57421875 11.05859375 C12.94140625 13.03515625 12.94140625 13.03515625 14.44921875 15.68359375 C16.19998587 18.71310745 17.94921156 21.68715485 19.94921875 24.55859375 C21.57421875 27.05859375 21.57421875 27.05859375 21.57421875 29.05859375 C22.23421875 29.05859375 22.89421875 29.05859375 23.57421875 29.05859375 C27.57421875 35.80859375 27.57421875 35.80859375 27.57421875 38.05859375 C28.23421875 38.05859375 28.89421875 38.05859375 29.57421875 38.05859375 C30.56219334 39.85155855 31.51355196 41.66476125 32.44726562 43.48657227 C35.02519473 47.71075914 35.02519473 47.71075914 39.20141602 50.05319214 C42.38236301 50.36076741 45.41254574 50.34851164 48.60546875 50.2109375 C49.75535278 50.20808243 50.90523682 50.20522736 52.08996582 50.20228577 C55.75407148 50.18523713 59.41147482 50.09461159 63.07421875 49.99609375 C66.73577892 49.9346905 70.39647585 49.88909812 74.05847168 49.86488342 C76.33264916 49.8459917 78.60678671 49.80378889 80.88000488 49.73509216 C88.45315662 49.6199166 92.41857598 50.76273914 98.38671875 55.49609375 C102.55892736 60.98584192 102.13424653 67.50715764 101.57421875 74.05859375 C99.8803334 79.3284593 97.34840823 81.37311217 92.57421875 84.05859375 C89.20870752 85.18043083 86.48361643 85.26660343 82.9375 85.375 C81.63876953 85.41689453 80.34003906 85.45878906 79.00195312 85.50195312 C77.63021114 85.54176362 76.25846631 85.58147591 74.88671875 85.62109375 C73.5032423 85.6643021 72.11977848 85.70791714 70.73632812 85.75195312 C67.34906156 85.85817403 63.96172076 85.96021733 60.57421875 86.05859375 C67.0851255 96.62096006 67.0851255 96.62096006 73.88671875 106.99609375 C74.33917969 107.681875 74.79164063 108.36765625 75.2578125 109.07421875 C76.16110209 110.4358541 77.09258311 111.77907895 78.046875 113.10546875 C82.38792858 119.7319238 82.59316637 126.30697352 81.57421875 134.05859375 C78.79163085 140.1588826 74.10829589 144.07073317 67.88671875 146.49609375 C61.85971601 147.67153214 55.70809476 146.87880238 50.375 143.78125 C44.40909738 138.98743041 40.54744762 132.49869799 36.57421875 126.05859375 C34.90857932 123.37045566 33.24158378 120.68316176 31.57421875 117.99609375 C31.15261475 117.31353516 30.73101074 116.63097656 30.29663086 115.92773438 C27.19723874 110.94765766 23.83515388 106.22746659 20.32421875 101.52734375 C18.1703829 98.48889675 16.39041533 95.33536333 14.6796875 92.03125 C13.43927131 89.81778648 12.27238911 87.95428504 10.57421875 86.05859375 C8.48661319 85.47254301 8.48661319 85.47254301 6.13793945 85.57617188 C5.24303299 85.56936401 4.34812653 85.56255615 3.42610168 85.55554199 C1.97768135 85.57252136 1.97768135 85.57252136 0.5 85.58984375 C-0.49779984 85.58279419 -1.49559967 85.57574463 -2.52363586 85.56848145 C-6.79380487 85.5389738 -11.06352036 85.55556965 -15.33374023 85.56787109 C-18.45193433 85.57026216 -21.5693969 85.54926837 -24.6875 85.52734375 C-25.6429924 85.53866333 -26.5984848 85.54998291 -27.58293152 85.56164551 C-33.69845681 85.51592777 -38.31552697 84.54222824 -43.42578125 81.05859375 C-46.91725656 76.97819489 -48.33321509 71.33486463 -48.42578125 66.05859375 C-47.25577311 60.06359628 -45.27515869 55.9617512 -40.42578125 52.05859375 C-37.13391234 50.02496215 -34.62708582 49.82240966 -30.78515625 49.86328125 C-29.71523438 49.86972656 -28.6453125 49.87617188 -27.54296875 49.8828125 C-26.43179687 49.89957031 -25.320625 49.91632813 -24.17578125 49.93359375 C-23.04914063 49.94261719 -21.9225 49.95164062 -20.76171875 49.9609375 C-17.9828576 49.98448717 -15.20442735 50.01737695 -12.42578125 50.05859375 C-13.98679644 47.70343103 -15.54955074 45.34945271 -17.11328125 42.99609375 C-17.54833984 42.33931641 -17.98339844 41.68253906 -18.43164062 41.00585938 C-20.61862742 37.71727923 -22.8416443 34.48431986 -25.1953125 31.3125 C-29.07697118 25.649765 -29.09458803 19.78487911 -28.42578125 13.05859375 C-26.63815888 7.37266236 -22.22824287 3.37908926 -17.42578125 0.05859375 C-11.92870855 -1.77376382 -5.4593088 -2.11866895 0 0 Z " fill="#A248FF" transform="translate(491.42578125,451.94140625)"/>
<path d="M0 0 C0.33 0 0.66 0 1 0 C1.28571429 7.42857143 1.28571429 7.42857143 -1 11 C-1.33 11 -1.66 11 -2 11 C-2.24042276 6.91281305 -1.42258812 3.82320557 0 0 Z " fill="#BA78FF" transform="translate(252,713)"/>
</svg>
